<svg width="40" height="40" viewBox="0 0 40 40" fill="none" xmlns="http://www.w3.org/2000/svg">
<rect width="40" height="40" rx="20" fill="#A3CDE3"/>
<path d="M27.8521 12.1486C26.2817 10.5755 23.9727 9.94926 21.3561 10.3852C18.8333 10.8061 16.3058 12.1749 14.2405 14.2402C12.1752 16.3055 10.8064 18.834 10.3855 21.3558C9.94955 23.9724 10.573 26.2786 12.1489 27.8518C13.3949 29.0986 15.1021 29.7502 17.0586 29.7502C17.5902 29.7487 18.1207 29.7035 18.6449 29.6152C21.1677 29.1943 23.6952 27.8255 25.7605 25.7602C27.8258 23.6949 29.1946 21.1664 29.6155 18.6446C30.0514 16.028 29.4252 13.7189 27.8521 12.1486ZM15.3008 15.3005C17.6155 12.9868 20.4692 11.7436 22.9208 11.7436C23.8643 11.7293 24.7972 11.9438 25.6395 12.3689C24.5889 12.7355 23.6055 13.272 22.7286 13.9571C20.9286 15.3783 19.7633 17.3621 19.2655 19.853C18.3542 24.4074 15.0749 25.9636 12.9392 26.4943C10.6921 23.8215 11.6942 18.908 15.3008 15.3005ZM24.7002 24.6999C21.448 27.9511 17.1336 29.0855 14.3577 27.6314C15.4095 27.2649 16.3941 26.7284 17.2724 26.0433C19.0724 24.6221 20.2377 22.6383 20.7355 20.1474C21.6467 15.593 24.9261 14.0368 27.0617 13.5061C29.3089 16.1789 28.3067 21.0924 24.7002 24.6999Z" fill="black"/>
</svg>
