<svg width="24" height="25" viewBox="0 0 24 25" fill="none" xmlns="http://www.w3.org/2000/svg">
<path d="M19.8521 4.27901C18.2817 2.70588 15.9727 2.07963 13.3561 2.51557C10.8333 2.93651 8.3058 4.30526 6.24049 6.37057C4.17518 8.43588 2.80643 10.9643 2.38549 13.4862C1.94955 16.1028 2.57299 18.409 4.14893 19.9821C5.39486 21.229 7.10205 21.8806 9.05861 21.8806C9.59017 21.879 10.1207 21.8339 10.6449 21.7456C13.1677 21.3246 15.6952 19.9559 17.7605 17.8906C19.8258 15.8253 21.1946 13.2968 21.6155 10.7749C22.0514 8.15838 21.4252 5.84932 19.8521 4.27901ZM7.3008 7.43088C9.61549 5.11713 12.4692 3.87401 14.9208 3.87401C15.8643 3.85963 16.7972 4.07419 17.6395 4.49932C16.5889 4.86588 15.6055 5.40238 14.7286 6.08745C12.9286 7.5087 11.7633 9.49245 11.2655 11.9834C10.3542 16.5378 7.07486 18.094 4.93924 18.6246C2.69205 15.9518 3.69424 11.0384 7.3008 7.43088ZM16.7002 16.8303C13.448 20.0815 9.13361 21.2159 6.35768 19.7618C7.40949 19.3953 8.3941 18.8588 9.27236 18.1737C11.0724 16.7524 12.2377 14.7687 12.7355 12.2778C13.6467 7.72338 16.9261 6.16713 19.0617 5.63651C21.3089 8.30932 20.3067 13.2228 16.7002 16.8303Z" fill="black"/>
</svg>
