<svg width="24" height="25" viewBox="0 0 24 25" fill="none" xmlns="http://www.w3.org/2000/svg">
<path d="M23.2155 4.61987C23.2047 4.43639 23.127 4.26323 22.9971 4.13327C22.8671 4.0033 22.6939 3.92559 22.5105 3.91487C17.658 3.63362 13.7617 5.10925 12.0873 7.873C10.9811 9.70018 10.983 11.9192 12.0723 14.0361C11.4523 14.7743 10.9991 15.6377 10.7439 16.5674L9.21859 15.0364C9.95171 13.5055 9.92359 11.9099 9.12484 10.5842C7.88734 8.54143 5.03078 7.44643 1.48421 7.65456C1.30073 7.66527 1.12757 7.74299 0.997607 7.87295C0.867644 8.00292 0.789928 8.17608 0.779212 8.35956C0.57015 11.9061 1.66609 14.7627 3.7089 16.0002C4.38302 16.412 5.15767 16.63 5.94765 16.6302C6.71443 16.6207 7.46928 16.4391 8.1564 16.0986L10.5002 18.4424V21.1302C10.5002 21.3291 10.5792 21.5199 10.7198 21.6605C10.8605 21.8012 11.0512 21.8802 11.2502 21.8802C11.4491 21.8802 11.6398 21.8012 11.7805 21.6605C11.9211 21.5199 12.0002 21.3291 12.0002 21.1302V18.3655C11.9968 17.1723 12.4028 16.0141 13.1505 15.0842C14.1151 15.5884 15.1849 15.8582 16.2733 15.8717C17.3255 15.8751 18.3582 15.5877 19.2573 15.0411C22.0211 13.3686 23.5005 9.47237 23.2155 4.61987ZM4.48234 14.7177C3.04421 13.8467 2.23046 11.7852 2.25015 9.13018C4.90515 9.10768 6.96671 9.92425 7.83765 11.3624C8.29234 12.1124 8.3664 12.9871 8.06828 13.888L5.77984 11.5996C5.63804 11.4648 5.44923 11.3909 5.25366 11.3934C5.05809 11.3959 4.87123 11.4747 4.73293 11.613C4.59463 11.7513 4.51582 11.9381 4.51332 12.1337C4.51082 12.3293 4.58481 12.5181 4.71953 12.6599L7.00796 14.9483C6.10703 15.2464 5.23328 15.1724 4.48234 14.7177ZM18.4802 13.7596C17.2239 14.5199 15.7473 14.578 14.2473 13.9471L19.2808 8.91268C19.4155 8.77089 19.4895 8.58208 19.487 8.3865C19.4845 8.19093 19.4057 8.00408 19.2674 7.86578C19.1291 7.72747 18.9422 7.64867 18.7466 7.64617C18.5511 7.64366 18.3623 7.71766 18.2205 7.85237L13.1861 12.8802C12.5523 11.3802 12.6095 9.90268 13.3736 8.64737C14.6805 6.49112 17.7798 5.28925 21.7483 5.38206C21.8383 9.34956 20.6383 12.4527 18.4802 13.7596Z" fill="black"/>
</svg>
