<svg width="24" height="25" viewBox="0 0 24 25" fill="none" xmlns="http://www.w3.org/2000/svg">
<path d="M22.9503 14.2305C22.8715 14.2896 22.7818 14.3326 22.6864 14.3571C22.591 14.3815 22.4917 14.3869 22.3942 14.373C22.2967 14.3591 22.2029 14.3261 22.1182 14.2759C22.0334 14.2257 21.9594 14.1593 21.9003 14.0805C21.4482 13.4729 20.8598 12.9799 20.1824 12.6412C19.5051 12.3025 18.7576 12.1276 18.0003 12.1305C17.8528 12.1305 17.7086 12.087 17.5857 12.0055C17.4628 11.9239 17.3667 11.808 17.3093 11.6721C17.2704 11.5798 17.2504 11.4807 17.2504 11.3805C17.2504 11.2804 17.2704 11.1812 17.3093 11.089C17.3667 10.9531 17.4628 10.8371 17.5857 10.7556C17.7086 10.674 17.8528 10.6306 18.0003 10.6305C18.4211 10.6305 18.8335 10.5125 19.1906 10.2898C19.5477 10.0671 19.8351 9.74881 20.0204 9.37095C20.2056 8.9931 20.2812 8.57087 20.2385 8.15222C20.1958 7.73358 20.0365 7.3353 19.7788 7.00262C19.5211 6.66995 19.1753 6.41621 18.7806 6.27024C18.3859 6.12427 17.9582 6.09191 17.546 6.17684C17.1338 6.26176 16.7538 6.46057 16.4489 6.75069C16.1441 7.0408 15.9267 7.41058 15.8215 7.81804C15.7969 7.91345 15.7537 8.00308 15.6945 8.08181C15.6352 8.16054 15.561 8.22682 15.4761 8.27688C15.3913 8.32693 15.2974 8.35978 15.1998 8.37355C15.1022 8.38731 15.0029 8.38172 14.9075 8.3571C14.8121 8.33248 14.7224 8.2893 14.6437 8.23004C14.565 8.17078 14.4987 8.09659 14.4486 8.01171C14.3986 7.92683 14.3657 7.83293 14.352 7.73535C14.3382 7.63778 14.3438 7.53845 14.3684 7.44304C14.5144 6.87802 14.7903 6.35488 15.1741 5.91524C15.5579 5.47561 16.039 5.13161 16.5791 4.91062C17.1192 4.68963 17.7034 4.59775 18.2853 4.64229C18.8672 4.68683 19.4307 4.86655 19.9309 5.16717C20.431 5.46779 20.8542 5.88101 21.1666 6.37393C21.479 6.86686 21.672 7.42589 21.7303 8.00655C21.7887 8.58721 21.7107 9.17347 21.5026 9.71868C21.2944 10.2639 20.9619 10.753 20.5315 11.1471C21.5514 11.5887 22.4379 12.2894 23.1031 13.1796C23.1622 13.2586 23.2051 13.3485 23.2294 13.4441C23.2537 13.5397 23.2589 13.6392 23.2447 13.7368C23.2305 13.8344 23.1972 13.9283 23.1467 14.013C23.0962 14.0977 23.0294 14.1716 22.9503 14.2305ZM17.899 20.0055C17.9533 20.0909 17.9897 20.1864 18.0062 20.2862C18.0226 20.386 18.0186 20.4881 17.9946 20.5863C17.9705 20.6846 17.9268 20.7769 17.8661 20.8579C17.8054 20.9388 17.729 21.0066 17.6414 21.0572C17.5539 21.1078 17.4569 21.1402 17.3565 21.1524C17.2561 21.1646 17.1543 21.1564 17.0571 21.1282C16.96 21.1 16.8695 21.0525 16.7912 20.9884C16.713 20.9244 16.6484 20.8452 16.6015 20.7555C16.1291 19.9555 15.4562 19.2925 14.6493 18.832C13.8424 18.3714 12.9294 18.1292 12.0003 18.1292C11.0712 18.1292 10.1582 18.3714 9.35126 18.832C8.54436 19.2925 7.87149 19.9555 7.39903 20.7555C7.35215 20.8452 7.28762 20.9244 7.20932 20.9884C7.13102 21.0525 7.04058 21.1 6.94344 21.1282C6.84629 21.1564 6.74445 21.1646 6.64403 21.1524C6.54362 21.1402 6.44671 21.1078 6.35914 21.0572C6.27156 21.0066 6.19513 20.9388 6.13445 20.8579C6.07376 20.7769 6.03007 20.6846 6.00601 20.5863C5.98194 20.4881 5.978 20.386 5.99441 20.2862C6.01083 20.1864 6.04727 20.0909 6.10153 20.0055C6.82866 18.7562 7.93734 17.773 9.26466 17.2005C8.51778 16.6287 7.96887 15.8372 7.6951 14.9373C7.42132 14.0373 7.43644 13.0742 7.73833 12.1833C8.04022 11.2924 8.6137 10.5185 9.37816 9.97042C10.1426 9.42231 11.0596 9.12753 12.0003 9.12753C12.9409 9.12753 13.8579 9.42231 14.6224 9.97042C15.3869 10.5185 15.9603 11.2924 16.2622 12.1833C16.5641 13.0742 16.5792 14.0373 16.3055 14.9373C16.0317 15.8372 15.4828 16.6287 14.7359 17.2005C16.0632 17.773 17.1719 18.7562 17.899 20.0055ZM12.0003 16.6305C12.5936 16.6305 13.1736 16.4546 13.667 16.1249C14.1603 15.7953 14.5449 15.3268 14.7719 14.7786C14.999 14.2304 15.0584 13.6272 14.9426 13.0453C14.8269 12.4633 14.5412 11.9288 14.1216 11.5092C13.702 11.0897 13.1675 10.8039 12.5856 10.6882C12.0036 10.5724 11.4004 10.6318 10.8522 10.8589C10.3041 11.086 9.83552 11.4705 9.50588 11.9638C9.17623 12.4572 9.00028 13.0372 9.00028 13.6305C9.00028 14.4262 9.31635 15.1892 9.87896 15.7519C10.4416 16.3145 11.2046 16.6305 12.0003 16.6305ZM6.75028 11.3805C6.75028 11.1816 6.67127 10.9909 6.53061 10.8502C6.38996 10.7096 6.1992 10.6305 6.00028 10.6305C5.57947 10.6305 5.16709 10.5125 4.81 10.2898C4.45292 10.0671 4.16543 9.74881 3.98019 9.37095C3.79495 8.9931 3.71939 8.57087 3.7621 8.15222C3.8048 7.73358 3.96405 7.3353 4.22176 7.00262C4.47947 6.66995 4.82531 6.41621 5.22 6.27024C5.61469 6.12427 6.04241 6.09191 6.45456 6.17684C6.86672 6.26176 7.2468 6.46057 7.55164 6.75069C7.85647 7.0408 8.07383 7.41058 8.17903 7.81804C8.22876 8.01073 8.353 8.17578 8.52442 8.27688C8.69584 8.37797 8.9004 8.40683 9.0931 8.3571C9.28579 8.30737 9.45084 8.18313 9.55194 8.01171C9.65303 7.84029 9.68189 7.63573 9.63216 7.44304C9.48614 6.87802 9.21026 6.35488 8.82648 5.91524C8.4427 5.47561 7.96161 5.13161 7.42149 4.91062C6.88137 4.68963 6.29712 4.59775 5.71524 4.64229C5.13336 4.68683 4.56991 4.86655 4.06972 5.16717C3.56952 5.46779 3.14639 5.88101 2.83399 6.37393C2.52159 6.86686 2.32855 7.42589 2.27022 8.00655C2.2119 8.58721 2.2899 9.17347 2.49801 9.71868C2.70613 10.2639 3.03862 10.753 3.46903 11.1471C2.45024 11.5891 1.5647 12.2897 0.900284 13.1796C0.780813 13.3387 0.729448 13.5388 0.757491 13.7358C0.785533 13.9328 0.890686 14.1106 1.04982 14.2301C1.20895 14.3495 1.40902 14.4009 1.60602 14.3729C1.80302 14.3448 1.98081 14.2397 2.10028 14.0805C2.55233 13.4729 3.14073 12.9799 3.81812 12.6412C4.49551 12.3025 5.24295 12.1276 6.00028 12.1305C6.1992 12.1305 6.38996 12.0515 6.53061 11.9109C6.67127 11.7702 6.75028 11.5795 6.75028 11.3805Z" fill="black"/>
</svg>
